<svg xmlns="http://www.w3.org/2000/svg" viewBox="0 0 100 100">
	<style type="text/css">
		path {
			stroke: #ffffff;
			stroke-width: 0.2;
			stroke-linejoin: round;
		}
		#branch g {
			<!-- fill: #808080; -->
			opacity: 0.5;
		}
		#branch g:hover {
			opacity: 1;
		}
		path {
			opacity: 0.5;
		}
		path:hover {
			<!-- fill: #000000; -->
			opacity: 1;
		}


		#ability {
			fill: magenta;
		}
		#attack {
			fill: red;
		}
		#move {
			fill: blue;
		}
		#health {
			fill: green;
		}
		#energy {
			fill: orange;
		}
		#marquee {
			fill: #d0d0d0;
		}

		line {
			stroke: #ffffff;
			stroke-width: 0.5;
			stroke-linecap: round;
			pointer-events: none;
		}
		#icon image {
			width: 7%;
			height: 7%;
			pointer-events: none;
		}
		#frame image {
			width: 8%;
			height: 8%;
			pointer-events: none;
		}
	</style>
	<g id="branch">
		<g id="ability">
			<path id="ca" d="M61.755705,33.81966 A20,20,0,0,0,38.244295,33.81966 L44.122147,41.90983 A10,10,0,0,1,55.877853,41.90983 Z" />
			<path id="sa1" d="M67.633558,25.72949 A30,30,0,0,0,56.237351,20.655572 L54.158234,30.437048 A20,20,0,0,1,61.755705,33.81966 Z" />
			<path id="sa2" d="M56.237351,20.655572 A30,30,0,0,0,43.762649,20.655572 L45.841766,30.437048 A20,20,0,0,1,54.158234,30.437048 Z" />
			<path id="combo" d="M43.762649,20.655572 A30,30,0,0,0,32.366442,25.72949 L38.244295,33.81966 A20,20,0,0,1,45.841766,30.437048 Z" />
			<path id="sa3" d="M73.51141,17.63932 A40,40,0,0,0,58.316468,10.874096 L56.237351,20.655572 A30,30,0,0,1,67.633558,25.72949 Z" />
			<path id="sa4" d="M58.316468,10.874096 A40,40,0,0,0,41.683532,10.874096 L43.762649,20.655572 A30,30,0,0,1,56.237351,20.655572 Z" />
			<path id="juggle" d="M41.683532,10.874096 A40,40,0,0,0,26.48859,17.63932 L32.366442,25.72949 A30,30,0,0,1,43.762649,20.655572 Z" />
			<path id="sa5" d="M79.389263,9.54915 A50,50,0,0,0,60.395585,1.09262 L58.316468,10.874096 A40,40,0,0,1,73.51141,17.63932 Z" />
			<path id="sa6" d="M60.395585,1.09262 A50,50,0,0,0,39.604415,1.09262 L41.683532,10.874096 A40,40,0,0,1,58.316468,10.874096 Z" />
			<path id="charge" d="M39.604415,1.09262 A50,50,0,0,0,20.610737,9.54915 L26.48859,17.63932 A40,40,0,0,1,41.683532,10.874096 Z" />
		</g>
		<g id="attack">
			<path id="atk1" d="M38.244295,33.81966 A20,20,0,0,0,30.97887,56.18034 L40.489435,53.09017 A10,10,0,0,1,44.122147,41.90983 Z" />
			<path id="atk2" d="M32.366442,25.72949 A30,30,0,0,0,24.019238,35 L32.679492,40 A20,20,0,0,1,38.244295,33.81966 Z" />
			<path id="atk3" d="M24.019238,35 A30,30,0,0,0,20.164343,46.864146 L30.109562,47.909431 A20,20,0,0,1,32.679492,40 Z" />
			<path id="atk4" d="M20.164343,46.864146 A30,30,0,0,0,21.468305,59.27051 L30.97887,56.18034 A20,20,0,0,1,30.109562,47.909431 Z" />
			<path id="dmg1" d="M26.48859,17.63932 A40,40,0,0,0,19.17947,24.50304 L26.884603,30.87728 A30,30,0,0,1,32.366442,25.72949 Z" />
			<path id="atk5" d="M19.17947,24.50304 A40,40,0,0,0,13.806918,32.968828 L22.855188,37.226621 A30,30,0,0,1,26.884603,30.87728 Z" />
			<path id="atk6" d="M13.806918,32.968828 A40,40,0,0,0,10.70851,42.504747 L20.531382,44.378561 A30,30,0,0,1,22.855188,37.226621 Z" />
			<path id="atk7" d="M10.70851,42.504747 A40,40,0,0,0,10.078931,52.511621 L20.059198,51.883716 A30,30,0,0,1,20.531382,44.378561 Z" />
			<path id="rate1" d="M10.078931,52.511621 A40,40,0,0,0,11.957739,62.36068 L21.468305,59.27051 A30,30,0,0,1,20.059198,51.883716 Z" />
			<path id="atk8" d="M20.610737,9.54915 A50,50,0,0,0,11.474338,18.128801 L19.17947,24.50304 A40,40,0,0,1,26.48859,17.63932 Z" />
			<path id="dmg2" d="M11.474338,18.128801 A50,50,0,0,0,4.758647,28.711035 L13.806918,32.968828 A40,40,0,0,1,19.17947,24.50304 Z" />
			<path id="atk9" d="M4.758647,28.711035 A50,50,0,0,0,0.885637,40.630934 L10.70851,42.504747 A40,40,0,0,1,13.806918,32.968828 Z" />
			<path id="rate2" d="M0.885637,40.630934 A50,50,0,0,0,0.098664,53.139526 L10.078931,52.511621 A40,40,0,0,1,10.70851,42.504747 Z" />
			<path id="atk10" d="M0.098664,53.139526 A50,50,0,0,0,2.447174,65.45085 L11.957739,62.36068 A40,40,0,0,1,10.078931,52.511621 Z" />
		</g>
		<g id="move">
			<path id="slot1" d="M30.97887,56.18034 A20,20,0,0,0,50,70 L50,60 A10,10,0,0,1,40.489435,53.09017 Z" />
			<path id="slot2" d="M21.468305,59.27051 A30,30,0,0,0,27.705655,70.073918 L35.137103,63.382612 A20,20,0,0,1,30.97887,56.18034 Z" />
			<path id="gear1" d="M27.705655,70.073918 A30,30,0,0,0,37.797901,77.406364 L41.865267,68.270909 A20,20,0,0,1,35.137103,63.382612 Z" />
			<path id="gear2" d="M37.797901,77.406364 A30,30,0,0,0,50,80 L50,70 A20,20,0,0,1,41.865267,68.270909 Z" />
			<path id="slot3" d="M11.957739,62.36068 A40,40,0,0,0,17.63932,73.51141 L25.72949,67.633558 A30,30,0,0,1,21.468305,59.27051 Z" />
			<path id="gear3" d="M17.63932,73.51141 A40,40,0,0,0,26.48859,82.36068 L32.366442,74.27051 A30,30,0,0,1,25.72949,67.633558 Z" />
			<path id="gear4" d="M26.48859,82.36068 A40,40,0,0,0,37.63932,88.042261 L40.72949,78.531695 A30,30,0,0,1,32.366442,74.27051 Z" />
			<path id="gear5" d="M37.63932,88.042261 A40,40,0,0,0,50,90 L50,80 A30,30,0,0,1,40.72949,78.531695 Z" />
			<path id="slot4" d="M2.447174,65.45085 A50,50,0,0,0,7.783604,76.79134 L16.226883,71.433072 A40,40,0,0,1,11.957739,62.36068 Z" />
			<path id="gear6" d="M7.783604,76.79134 A50,50,0,0,0,15.772645,86.448431 L22.618116,79.158745 A40,40,0,0,1,16.226883,71.433072 Z" />
			<path id="gear7" d="M15.772645,86.448431 A50,50,0,0,0,25.912316,93.815334 L30.729853,85.052267 A40,40,0,0,1,22.618116,79.158745 Z" />
			<path id="gear8" d="M25.912316,93.815334 A50,50,0,0,0,37.565506,98.429158 L40.052405,88.743326 A40,40,0,0,1,30.729853,85.052267 Z" />
			<path id="gear9" d="M37.565506,98.429158 A50,50,0,0,0,50,100 L50,90 A40,40,0,0,1,40.052405,88.743326 Z" />
		</g>
		<g id="health">
			<path id="hp1" d="M50,70 A20,20,0,0,0,69.02113,56.18034 L59.510565,53.09017 A10,10,0,0,1,50,60 Z" />
			<path id="hp2" d="M50,80 A30,30,0,0,0,62.202099,77.406364 L58.134733,68.270909 A20,20,0,0,1,50,70 Z" />
			<path id="hp3" d="M62.202099,77.406364 A30,30,0,0,0,72.294345,70.073918 L64.862897,63.382612 A20,20,0,0,1,58.134733,68.270909 Z" />
			<path id="hp4" d="M72.294345,70.073918 A30,30,0,0,0,78.531695,59.27051 L69.02113,56.18034 A20,20,0,0,1,64.862897,63.382612 Z" />
			<path id="hp5" d="M50,90 A40,40,0,0,0,59.947595,88.743326 L57.460697,79.057495 A30,30,0,0,1,50,80 Z" />
			<path id="block1" d="M59.947595,88.743326 A40,40,0,0,0,69.270147,85.052267 L64.45261,76.2892 A30,30,0,0,1,57.460697,79.057495 Z" />
			<path id="hp6" d="M69.270147,85.052267 A40,40,0,0,0,77.381884,79.158745 L70.536413,71.869059 A30,30,0,0,1,64.45261,76.2892 Z" />
			<path id="def1" d="M77.381884,79.158745 A40,40,0,0,0,83.773117,71.433072 L75.329838,66.074804 A30,30,0,0,1,70.536413,71.869059 Z" />
			<path id="hp7" d="M83.773117,71.433072 A40,40,0,0,0,88.042261,62.36068 L78.531695,59.27051 A30,30,0,0,1,75.329838,66.074804 Z" />
			<path id="def2" d="M50,100 A50,50,0,0,0,62.434494,98.429158 L59.947595,88.743326 A40,40,0,0,1,50,90 Z" />
			<path id="hp8" d="M62.434494,98.429158 A50,50,0,0,0,74.087684,93.815334 L69.270147,85.052267 A40,40,0,0,1,59.947595,88.743326 Z" />
			<path id="hp9" d="M74.087684,93.815334 A50,50,0,0,0,84.227355,86.448431 L77.381884,79.158745 A40,40,0,0,1,69.270147,85.052267 Z" />
			<path id="hp10" d="M84.227355,86.448431 A50,50,0,0,0,92.216396,76.79134 L83.773117,71.433072 A40,40,0,0,1,77.381884,79.158745 Z" />
			<path id="block2" d="M92.216396,76.79134 A50,50,0,0,0,97.552826,65.45085 L88.042261,62.36068 A40,40,0,0,1,83.773117,71.433072 Z" />
		</g>
		<g id="energy">
			<path id="cool1" d="M69.02113,56.18034 A20,20,0,0,0,61.755705,33.81966 L55.877853,41.90983 A10,10,0,0,1,59.510565,53.09017 Z" />
			<path id="cool2" d="M78.531695,59.27051 A30,30,0,0,0,79.835657,46.864146 L69.890438,47.909431 A20,20,0,0,1,69.02113,56.18034 Z" />
			<path id="cool3" d="M79.835657,46.864146 A30,30,0,0,0,75.980762,35 L67.320508,40 A20,20,0,0,1,69.890438,47.909431 Z" />
			<path id="cool4" d="M75.980762,35 A30,30,0,0,0,67.633558,25.72949 L61.755705,33.81966 A20,20,0,0,1,67.320508,40 Z" />
			<path id="cool5" d="M88.042261,62.36068 A40,40,0,0,0,89.921069,52.511621 L79.940802,51.883716 A30,30,0,0,1,78.531695,59.27051 Z" />
			<path id="cool6" d="M89.921069,52.511621 A40,40,0,0,0,89.29149,42.504747 L79.468618,44.378561 A30,30,0,0,1,79.940802,51.883716 Z" />
			<path id="tag1" d="M89.29149,42.504747 A40,40,0,0,0,86.193082,32.968828 L77.144812,37.226621 A30,30,0,0,1,79.468618,44.378561 Z" />
			<path id="cool7" d="M86.193082,32.968828 A40,40,0,0,0,80.82053,24.50304 L73.115397,30.87728 A30,30,0,0,1,77.144812,37.226621 Z" />
			<path id="sm1" d="M80.82053,24.50304 A40,40,0,0,0,73.51141,17.63932 L67.633558,25.72949 A30,30,0,0,1,73.115397,30.87728 Z" />
			<path id="cool8" d="M97.552826,65.45085 A50,50,0,0,0,99.901336,53.139526 L89.921069,52.511621 A40,40,0,0,1,88.042261,62.36068 Z" />
			<path id="sm2" d="M99.901336,53.139526 A50,50,0,0,0,99.114363,40.630934 L89.29149,42.504747 A40,40,0,0,1,89.921069,52.511621 Z" />
			<path id="cool9" d="M99.114363,40.630934 A50,50,0,0,0,95.241353,28.711035 L86.193082,32.968828 A40,40,0,0,1,89.29149,42.504747 Z" />
			<path id="tag2" d="M95.241353,28.711035 A50,50,0,0,0,88.525662,18.128801 L80.82053,24.50304 A40,40,0,0,1,86.193082,32.968828 Z" />
			<path id="cool10" d="M88.525662,18.128801 A50,50,0,0,0,79.389263,9.54915 L73.51141,17.63932 A40,40,0,0,1,80.82053,24.50304 Z" />
		</g>
		<g id="marquee">
			<path id="ma0" d="M59.659258,47.41181 A10,10,0,0,0,57.071068,42.928932 L50,50 Z" />
			<path id="ma1" d="M57.071068,42.928932 A10,10,0,0,0,52.58819,40.340742 L50,50 Z" />
			<path id="ma2" d="M52.58819,40.340742 A10,10,0,0,0,47.41181,40.340742 L50,50 Z" />
			<path id="ma3" d="M47.41181,40.340742 A10,10,0,0,0,42.928932,42.928932 L50,50 Z" />
			<path id="ma4" d="M42.928932,42.928932 A10,10,0,0,0,40.340742,47.41181 L50,50 Z" />
			<path id="ma5" d="M40.340742,47.41181 A10,10,0,0,0,40.340742,52.58819 L50,50 Z" />
			<path id="ma6" d="M40.340742,52.58819 A10,10,0,0,0,42.928932,57.071068 L50,50 Z" />
			<path id="ma7" d="M42.928932,57.071068 A10,10,0,0,0,47.41181,59.659258 L50,50 Z" />
			<path id="ma8" d="M47.41181,59.659258 A10,10,0,0,0,52.58819,59.659258 L50,50 Z" />
			<path id="ma9" d="M52.58819,59.659258 A10,10,0,0,0,57.071068,57.071068 L50,50 Z" />
			<path id="ma10" d="M57.071068,57.071068 A10,10,0,0,0,59.659258,52.58819 L50,50 Z" />
			<path id="ma11" d="M59.659258,52.58819 A10,10,0,0,0,59.659258,47.41181 L50,50 Z" />
		</g>
	</g>

	<g id="line">
		<line x1="50" y1="50" x2="50" y2="35" />
		<line x1="50" y1="35" x2="50" y2="25" />
		<line x1="60.168416" y1="27.161364" x2="50" y2="25" />
		<line x1="60.168416" y1="27.161364" x2="64.235783" y2="18.025909" />
		<line x1="60.168416" y1="27.161364" x2="50" y2="15" />
		<line x1="50" y1="25" x2="39.831584" y2="27.161364" />
		<line x1="39.831584" y1="27.161364" x2="50" y2="15" />
		<line x1="39.831584" y1="27.161364" x2="35.764217" y2="18.025909" />
		<line x1="50" y1="15" x2="68.303149" y2="8.890454" />
		<line x1="68.303149" y1="8.890454" x2="50" y2="5" />
		<line x1="50" y1="5" x2="31.696851" y2="8.890454" />

		<line x1="50" y1="50" x2="35.734152" y2="45.364745" />
		<line x1="35.734152" y1="45.364745" x2="26.223587" y2="42.274575" />
		<line x1="31.421379" y1="33.271735" x2="26.223587" y2="42.274575" />
		<line x1="31.421379" y1="33.271735" x2="20.448523" y2="31.246062" />
		<line x1="26.223587" y1="42.274575" x2="25.136953" y2="52.613212" />
		<line x1="25.136953" y1="52.613212" x2="15.069065" y2="47.802332" />
		<line x1="26.040851" y1="24.486098" x2="20.448523" y2="31.246062" />
		<line x1="26.040851" y1="24.486098" x2="19.19538" y2="17.196412" />
		<line x1="20.448523" y1="31.246062" x2="16.713022" y2="39.184405" />
		<line x1="16.713022" y1="39.184405" x2="15.069065" y2="47.802332" />
		<line x1="16.713022" y1="39.184405" x2="7.202457" y2="36.094235" />
		<line x1="15.069065" y1="47.802332" x2="15.619946" y2="56.558346" />
		<line x1="15.619946" y1="56.558346" x2="5.797074" y2="58.432159" />
		<line x1="12.005243" y1="25.887794" x2="7.202457" y2="36.094235" />
		<line x1="7.202457" y1="36.094235" x2="5.088797" y2="47.174427" />

		<line x1="50" y1="50" x2="41.183221" y2="62.135255" />
		<line x1="41.183221" y1="62.135255" x2="28.349365" y2="62.5" />
		<line x1="28.349365" y1="62.5" x2="35.305369" y2="70.225425" />
		<line x1="28.349365" y1="62.5" x2="18.814772" y2="65.889667" />
		<line x1="35.305369" y1="70.225425" x2="44.802208" y2="74.45369" />
		<line x1="18.814772" y1="65.889667" x2="25.251263" y2="74.748737" />
		<line x1="18.814772" y1="65.889667" x2="9.282783" y2="69.160068" />
		<line x1="25.251263" y1="74.748737" x2="34.110333" y2="81.185228" />
		<line x1="34.110333" y1="81.185228" x2="44.524794" y2="84.569092" />
		<line x1="9.282783" y1="69.160068" x2="15.326904" y2="78.68408" />
		<line x1="15.326904" y1="78.68408" x2="23.549664" y2="86.405765" />
		<line x1="23.549664" y1="86.405765" x2="33.434395" y2="91.839942" />
		<line x1="33.434395" y1="91.839942" x2="44.360004" y2="94.645162" />

		<line x1="50" y1="50" x2="58.816779" y2="62.135255" />
		<line x1="58.816779" y1="62.135255" x2="64.694631" y2="70.225425" />
		<line x1="55.197792" y1="74.45369" x2="64.694631" y2="70.225425" />
		<line x1="55.197792" y1="74.45369" x2="54.386663" y2="84.724015" />
		<line x1="64.694631" y1="70.225425" x2="71.650635" y2="62.5" />
		<line x1="64.694631" y1="70.225425" x2="70.572484" y2="78.315595" />
		<line x1="71.650635" y1="62.5" x2="81.668947" y2="64.902275" />
		<line x1="54.386663" y1="84.724015" x2="62.884359" y2="82.542177" />
		<line x1="62.884359" y1="82.542177" x2="66.565605" y2="91.839942" />
		<line x1="70.572484" y1="78.315595" x2="76.450336" y2="86.405765" />
		<line x1="76.967963" y1="72.30984" x2="81.668947" y2="64.902275" />
		<line x1="76.967963" y1="72.30984" x2="84.673096" y2="78.68408" />
		<line x1="55.639996" y1="94.645162" x2="66.565605" y2="91.839942" />
		<line x1="84.673096" y1="78.68408" x2="90.717217" y2="69.160068" />

		<line x1="50" y1="50" x2="64.265848" y2="45.364745" />
		<line x1="64.265848" y1="45.364745" x2="74.863047" y2="52.613212" />
		<line x1="64.265848" y1="45.364745" x2="68.578621" y2="33.271735" />
		<line x1="74.863047" y1="52.613212" x2="73.776413" y2="42.274575" />
		<line x1="74.863047" y1="52.613212" x2="84.380054" y2="56.558346" />
		<line x1="73.776413" y1="42.274575" x2="68.578621" y2="33.271735" />
		<line x1="73.776413" y1="42.274575" x2="83.286978" y2="39.184405" />
		<line x1="68.578621" y1="33.271735" x2="73.959149" y2="24.486098" />
		<line x1="84.380054" y1="56.558346" x2="94.202926" y2="58.432159" />
		<line x1="84.930935" y1="47.802332" x2="83.286978" y2="39.184405" />
		<line x1="84.930935" y1="47.802332" x2="94.911203" y2="47.174427" />
		<line x1="83.286978" y1="39.184405" x2="92.797543" y2="36.094235" />
		<line x1="79.551477" y1="31.246062" x2="73.959149" y2="24.486098" />
		<line x1="79.551477" y1="31.246062" x2="87.994757" y2="25.887794" />
		<line x1="87.994757" y1="25.887794" x2="80.80462" y2="17.196412" />
	</g>
	<g id="icon">
		<image href="icon/RandomDiamond.png" x="50" y="35" transform="translate(-3.5,-3.5)" />
		<image href="icon/RandomDiamond.png" x="60.168416" y="27.161364" transform="translate(-3.5,-3.5)" />
		<image href="icon/RandomDiamond.png" x="50" y="25" transform="translate(-3.5,-3.5)" />
		<image href="icon/Combo.png" x="39.831584" y="27.161364" transform="translate(-3.5,-3.5)" />
		<image href="icon/RandomDiamond.png" x="64.235783" y="18.025909" transform="translate(-3.5,-3.5)" />
		<image href="icon/RandomDiamond.png" x="50" y="15" transform="translate(-3.5,-3.5)" />
		<image href="icon/Juggle.png" x="35.764217" y="18.025909" transform="translate(-3.5,-3.5)" />
		<image href="icon/RandomDiamond.png" x="68.303149" y="8.890454" transform="translate(-3.5,-3.5)" />
		<image href="icon/RandomDiamond.png" x="50" y="5" transform="translate(-3.5,-3.5)" />
		<image href="icon/ChargeUp.png" x="31.696851" y="8.890454" transform="translate(-3.5,-3.5)" />

		<image href="icon/Damage.png" x="35.734152" y="45.364745" transform="translate(-3.5,-3.5)" />
		<image href="icon/Damage.png" x="31.421379" y="33.271735" transform="translate(-3.5,-3.5)" />
		<image href="icon/Damage.png" x="26.223587" y="42.274575" transform="translate(-3.5,-3.5)" />
		<image href="icon/Damage.png" x="25.136953" y="52.613212" transform="translate(-3.5,-3.5)" />
		<image href="icon/CritDamage.png" x="26.040851" y="24.486098" transform="translate(-3.5,-3.5)" />
		<image href="icon/Damage.png" x="20.448523" y="31.246062" transform="translate(-3.5,-3.5)" />
		<image href="icon/Damage.png" x="16.713022" y="39.184405" transform="translate(-3.5,-3.5)" />
		<image href="icon/Damage.png" x="15.069065" y="47.802332" transform="translate(-3.5,-3.5)" />
		<image href="icon/CritRateIncrease.png" x="15.619946" y="56.558346" transform="translate(-3.5,-3.5)" />
		<image href="icon/Damage.png" x="19.19538" y="17.196412" transform="translate(-3.5,-3.5)" />
		<image href="icon/CritDamage.png" x="12.005243" y="25.887794" transform="translate(-3.5,-3.5)" />
		<image href="icon/Damage.png" x="7.202457" y="36.094235" transform="translate(-3.5,-3.5)" />
		<image href="icon/CritRateIncrease.png" x="5.088797" y="47.174427" transform="translate(-3.5,-3.5)" />
		<image href="icon/Damage.png" x="5.797074" y="58.432159" transform="translate(-3.5,-3.5)" />

		<image href="icon/GearSlotUnlock.png" x="41.183221" y="62.135255" transform="translate(-3.5,-3.5)" />
		<image href="icon/GearSlotUnlock.png" x="28.349365" y="62.5" transform="translate(-3.5,-3.5)" />
		<image href="icon/GearIncrease.png" x="35.305369" y="70.225425" transform="translate(-3.5,-3.5)" />
		<image href="icon/GearIncrease.png" x="44.802208" y="74.45369" transform="translate(-3.5,-3.5)" />
		<image href="icon/GearSlotUnlock.png" x="18.814772" y="65.889667" transform="translate(-3.5,-3.5)" />
		<image href="icon/GearIncrease.png" x="25.251263" y="74.748737" transform="translate(-3.5,-3.5)" />
		<image href="icon/GearIncrease.png" x="34.110333" y="81.185228" transform="translate(-3.5,-3.5)" />
		<image href="icon/GearIncrease.png" x="44.524794" y="84.569092" transform="translate(-3.5,-3.5)" />
		<image href="icon/GearSlotUnlock.png" x="9.282783" y="69.160068" transform="translate(-3.5,-3.5)" />
		<image href="icon/GearIncrease.png" x="15.326904" y="78.68408" transform="translate(-3.5,-3.5)" />
		<image href="icon/GearIncrease.png" x="23.549664" y="86.405765" transform="translate(-3.5,-3.5)" />
		<image href="icon/GearIncrease.png" x="33.434395" y="91.839942" transform="translate(-3.5,-3.5)" />
		<image href="icon/GearIncrease.png" x="44.360004" y="94.645162" transform="translate(-3.5,-3.5)" />

		<image href="icon/Life.png" x="58.816779" y="62.135255" transform="translate(-3.5,-3.5)" />
		<image href="icon/Life.png" x="55.197792" y="74.45369" transform="translate(-3.5,-3.5)" />
		<image href="icon/Life.png" x="64.694631" y="70.225425" transform="translate(-3.5,-3.5)" />
		<image href="icon/Life.png" x="71.650635" y="62.5" transform="translate(-3.5,-3.5)" />
		<image href="icon/Life.png" x="54.386663" y="84.724015" transform="translate(-3.5,-3.5)" />
		<image href="icon/BlockArmorReduction.png" x="62.884359" y="82.542177" transform="translate(-3.5,-3.5)" />
		<image href="icon/Life.png" x="70.572484" y="78.315595" transform="translate(-3.5,-3.5)" />
		<image href="icon/ArmorUp.png" x="76.967963" y="72.30984" transform="translate(-3.5,-3.5)" />
		<image href="icon/Life.png" x="81.668947" y="64.902275" transform="translate(-3.5,-3.5)" />
		<image href="icon/ArmorUp.png" x="55.639996" y="94.645162" transform="translate(-3.5,-3.5)" />
		<image href="icon/Life.png" x="66.565605" y="91.839942" transform="translate(-3.5,-3.5)" />
		<image href="icon/Life.png" x="76.450336" y="86.405765" transform="translate(-3.5,-3.5)" />
		<image href="icon/Life.png" x="84.673096" y="78.68408" transform="translate(-3.5,-3.5)" />
		<image href="icon/BlockArmorReduction.png" x="90.717217" y="69.160068" transform="translate(-3.5,-3.5)" />

		<image href="icon/EnergyCooldown.png" x="64.265848" y="45.364745" transform="translate(-3.5,-3.5)" />
		<image href="icon/EnergyCooldown.png" x="74.863047" y="52.613212" transform="translate(-3.5,-3.5)" />
		<image href="icon/EnergyCooldown.png" x="73.776413" y="42.274575" transform="translate(-3.5,-3.5)" />
		<image href="icon/EnergyCooldown.png" x="68.578621" y="33.271735" transform="translate(-3.5,-3.5)" />
		<image href="icon/EnergyCooldown.png" x="84.380054" y="56.558346" transform="translate(-3.5,-3.5)" />
		<image href="icon/EnergyCooldown.png" x="84.930935" y="47.802332" transform="translate(-3.5,-3.5)" />
		<image href="icon/SwapCooldown.png" x="83.286978" y="39.184405" transform="translate(-3.5,-3.5)" />
		<image href="icon/EnergyCooldown.png" x="79.551477" y="31.246062" transform="translate(-3.5,-3.5)" />
		<image href="icon/SpecialMoveCooldown.png" x="73.959149" y="24.486098" transform="translate(-3.5,-3.5)" />
		<image href="icon/EnergyCooldown.png" x="94.202926" y="58.432159" transform="translate(-3.5,-3.5)" />
		<image href="icon/SpecialMoveCooldown.png" x="94.911203" y="47.174427" transform="translate(-3.5,-3.5)" />
		<image href="icon/EnergyCooldown.png" x="92.797543" y="36.094235" transform="translate(-3.5,-3.5)" />
		<image href="icon/SwapCooldown.png" x="87.994757" y="25.887794" transform="translate(-3.5,-3.5)" />
		<image href="icon/EnergyCooldown.png" x="80.80462" y="17.196412" transform="translate(-3.5,-3.5)" />
	</g>
	<g id="frame">
		<image href="icon/FrameDiamond.png" x="50" y="35" transform="translate(-4,-4)" />
		<image href="icon/FrameDiamond.png" x="60.168416" y="27.161364" transform="translate(-4,-4)" />
		<image href="icon/FrameDiamond.png" x="50" y="25" transform="translate(-4,-4)" />
		<image href="icon/FrameHex.png" x="39.831584" y="27.161364" transform="translate(-4,-4)" />
		<image href="icon/FrameDiamond.png" x="64.235783" y="18.025909" transform="translate(-4,-4)" />
		<image href="icon/FrameDiamond.png" x="50" y="15" transform="translate(-4,-4)" />
		<image href="icon/FrameHex.png" x="35.764217" y="18.025909" transform="translate(-4,-4)" />
		<image href="icon/FrameDiamond.png" x="68.303149" y="8.890454" transform="translate(-4,-4)" />
		<image href="icon/FrameDiamond.png" x="50" y="5" transform="translate(-4,-4)" />
		<image href="icon/FrameHex.png" x="31.696851" y="8.890454" transform="translate(-4,-4)" />

		<image href="icon/Frame.png" x="35.734152" y="45.364745" transform="translate(-4,-4)" />
		<image href="icon/Frame.png" x="31.421379" y="33.271735" transform="translate(-4,-4)" />
		<image href="icon/Frame.png" x="26.223587" y="42.274575" transform="translate(-4,-4)" />
		<image href="icon/Frame.png" x="25.136953" y="52.613212" transform="translate(-4,-4)" />
		<image href="icon/Frame.png" x="26.040851" y="24.486098" transform="translate(-4,-4)" />
		<image href="icon/Frame.png" x="20.448523" y="31.246062" transform="translate(-4,-4)" />
		<image href="icon/Frame.png" x="16.713022" y="39.184405" transform="translate(-4,-4)" />
		<image href="icon/Frame.png" x="15.069065" y="47.802332" transform="translate(-4,-4)" />
		<image href="icon/Frame.png" x="15.619946" y="56.558346" transform="translate(-4,-4)" />
		<image href="icon/Frame.png" x="19.19538" y="17.196412" transform="translate(-4,-4)" />
		<image href="icon/Frame.png" x="12.005243" y="25.887794" transform="translate(-4,-4)" />
		<image href="icon/Frame.png" x="7.202457" y="36.094235" transform="translate(-4,-4)" />
		<image href="icon/Frame.png" x="5.088797" y="47.174427" transform="translate(-4,-4)" />
		<image href="icon/Frame.png" x="5.797074" y="58.432159" transform="translate(-4,-4)" />

		<image href="icon/Frame.png" x="41.183221" y="62.135255" transform="translate(-4,-4)" />
		<image href="icon/Frame.png" x="28.349365" y="62.5" transform="translate(-4,-4)" />
		<image href="icon/Frame.png" x="35.305369" y="70.225425" transform="translate(-4,-4)" />
		<image href="icon/Frame.png" x="44.802208" y="74.45369" transform="translate(-4,-4)" />
		<image href="icon/Frame.png" x="18.814772" y="65.889667" transform="translate(-4,-4)" />
		<image href="icon/Frame.png" x="25.251263" y="74.748737" transform="translate(-4,-4)" />
		<image href="icon/Frame.png" x="34.110333" y="81.185228" transform="translate(-4,-4)" />
		<image href="icon/Frame.png" x="44.524794" y="84.569092" transform="translate(-4,-4)" />
		<image href="icon/Frame.png" x="9.282783" y="69.160068" transform="translate(-4,-4)" />
		<image href="icon/Frame.png" x="15.326904" y="78.68408" transform="translate(-4,-4)" />
		<image href="icon/Frame.png" x="23.549664" y="86.405765" transform="translate(-4,-4)" />
		<image href="icon/Frame.png" x="33.434395" y="91.839942" transform="translate(-4,-4)" />
		<image href="icon/Frame.png" x="44.360004" y="94.645162" transform="translate(-4,-4)" />

		<image href="icon/Frame.png" x="58.816779" y="62.135255" transform="translate(-4,-4)" />
		<image href="icon/Frame.png" x="55.197792" y="74.45369" transform="translate(-4,-4)" />
		<image href="icon/Frame.png" x="64.694631" y="70.225425" transform="translate(-4,-4)" />
		<image href="icon/Frame.png" x="71.650635" y="62.5" transform="translate(-4,-4)" />
		<image href="icon/Frame.png" x="54.386663" y="84.724015" transform="translate(-4,-4)" />
		<image href="icon/Frame.png" x="62.884359" y="82.542177" transform="translate(-4,-4)" />
		<image href="icon/Frame.png" x="70.572484" y="78.315595" transform="translate(-4,-4)" />
		<image href="icon/Frame.png" x="76.967963" y="72.30984" transform="translate(-4,-4)" />
		<image href="icon/Frame.png" x="81.668947" y="64.902275" transform="translate(-4,-4)" />
		<image href="icon/Frame.png" x="55.639996" y="94.645162" transform="translate(-4,-4)" />
		<image href="icon/Frame.png" x="66.565605" y="91.839942" transform="translate(-4,-4)" />
		<image href="icon/Frame.png" x="76.450336" y="86.405765" transform="translate(-4,-4)" />
		<image href="icon/Frame.png" x="84.673096" y="78.68408" transform="translate(-4,-4)" />
		<image href="icon/Frame.png" x="90.717217" y="69.160068" transform="translate(-4,-4)" />

		<image href="icon/Frame.png" x="64.265848" y="45.364745" transform="translate(-4,-4)" />
		<image href="icon/Frame.png" x="74.863047" y="52.613212" transform="translate(-4,-4)" />
		<image href="icon/Frame.png" x="73.776413" y="42.274575" transform="translate(-4,-4)" />
		<image href="icon/Frame.png" x="68.578621" y="33.271735" transform="translate(-4,-4)" />
		<image href="icon/Frame.png" x="84.380054" y="56.558346" transform="translate(-4,-4)" />
		<image href="icon/Frame.png" x="84.930935" y="47.802332" transform="translate(-4,-4)" />
		<image href="icon/Frame.png" x="83.286978" y="39.184405" transform="translate(-4,-4)" />
		<image href="icon/Frame.png" x="79.551477" y="31.246062" transform="translate(-4,-4)" />
		<image href="icon/Frame.png" x="73.959149" y="24.486098" transform="translate(-4,-4)" />
		<image href="icon/Frame.png" x="94.202926" y="58.432159" transform="translate(-4,-4)" />
		<image href="icon/Frame.png" x="94.911203" y="47.174427" transform="translate(-4,-4)" />
		<image href="icon/Frame.png" x="92.797543" y="36.094235" transform="translate(-4,-4)" />
		<image href="icon/Frame.png" x="87.994757" y="25.887794" transform="translate(-4,-4)" />
		<image href="icon/Frame.png" x="80.80462" y="17.196412" transform="translate(-4,-4)" />
	</g>


	<script>
		var tree = {
			"ca": ["sa2"],
			"sa1": ["sa3", "sa4"],
			"sa2": ["sa1, combo"],
			"combo": ["sa4", "juggle"],
			"sa3": [],
			"sa4": ["sa5"],
			"juggle": [],
			"sa5": ["sa6"],
			"sa6": ["charge"],
			"charge": [],

			"atk1": ["atk3"],
			"atk2": ["atk5"],
			"atk3": ["atk2", "atk4"],
			"atk4": ["atk7"],
			"dmg1": ["atk8"],
			"atk5": ["dmg1", "atk6"],
			"atk6": ["atk9"],
			"atk7": ["atk6", "rate1"],
			"rate1": ["atk10"],
			"atk8": [],
			"dmg2": [],
			"atk9": ["dmg2", "rate2"],
			"rate2": [],
			"atk10": [],

			"slot1": ["slot2"],
			"slot2": ["gear1", "slot3"],
			"gear1": ["gear2"],
			"gear2": [],
			"slot3": ["gear3", "slot4"],
			"gear3": ["gear4"],
			"gear4": ["gear5"],
			"gear5": [],
			"slot4": ["gear6"],
			"gear6": ["gear7"],
			"gear7": ["gear8"],
			"gear8": ["gear9"],
			"gear9": [],

			"hp1": ["hp3"],
			"hp2": ["hp5"],
			"hp3": ["hp6"],
			"hp4": ["hp7"],
			"hp5": ["block1"],
			"block1": ["hp8"],
			"hp6": ["hp9"],
			"def1": ["hp10"],
			"hp7": ["def1"],
			"def2": [],
			"hp8": ["def2"],
			"hp9": [],
			"hp10": ["block2"],
			"block2": [],

			"cool1": ["cool2", "cool4"],
			"cool2": ["cool3", "cool5"],
			"cool3": ["tag1"],
			"cool4": ["sm1"],
			"cool5": ["cool8"],
			"cool6": ["sm2"],
			"tag1": ["cool6", "cool9"],
			"cool7": ["tag2"],
			"sm1": ["cool7"],
			"cool8": [],
			"sm2": [],
			"cool9": [],
			"tag2": ["cool10"],
			"cool10": [],

			"ma0": ["ma1"],
			"ma1": ["ma2"],
			"ma2": ["ma3"],
			"ma3": ["ma4"],
			"ma4": ["ma5"],
			"ma5": ["ma6"],
			"ma6": ["ma7"],
			"ma7": ["ma8"],
			"ma8": ["ma9"],
			"ma9": ["ma10"],
			"ma10": ["ma11"],
			"ma11": []
		};

		function postMessage() {
			if (window.parent != window) {
				var json = JSON.stringify({});
				window.parent.postMessage(json, window.parent.origin);
			}
		}

		function updateTree(e) {
			if (e.target.tagName.toLowerCase() == "path") {
				var id = e.target.id;
				if (unchecked) {
					uncheckForwards();
				}
				else if (checked) {
					checkBackwards();
				}
				postMessage();
			}
		}

		window.addEventListener("click", updateTree);
	</script>
</svg>
