<svg xmlns="http://www.w3.org/2000/svg" viewBox="0 0 100 100">
	<style type="text/css">
		path {
			fill: #808080;
			stroke: #ffffff;
			stroke-width: 0.2;
			stroke-linejoin: round;
		}
		path:hover {
			fill: #000000;
		}
		#branch g {
			opacity: 0.5;
		}
		#branch g:hover {
			opacity: 1;
		}
		line {
			stroke: #ccb55a;
			stroke-width: 0.5;
			pointer-events: none;
		}
		#icon image {
			width: 7%;
			height: 7%;
			pointer-events: none;
		}
		#frame image {
			width: 8%;
			height: 8%;
			pointer-events: none;
		}
	</style>
	<g id="branch">
		<g id="ability">
			<path d="M55.877853,41.90983 L61.755705,33.81966 A20,20,0,0,0,38.244295,33.81966 L44.122147,41.90983 A10,10,0,0,1,55.877853,41.90983" />
			<path d="M61.755705,33.81966 L67.633558,25.72949 A30,30,0,0,0,56.237351,20.655572 L54.158234,30.437048 A20,20,0,0,1,61.755705,33.81966" />
			<path d="M54.158234,30.437048 L56.237351,20.655572 A30,30,0,0,0,43.762649,20.655572 L45.841766,30.437048 A20,20,0,0,1,54.158234,30.437048" />
			<path d="M45.841766,30.437048 L43.762649,20.655572 A30,30,0,0,0,32.366442,25.72949 L38.244295,33.81966 A20,20,0,0,1,45.841766,30.437048" />
			<path d="M67.633558,25.72949 L73.51141,17.63932 A40,40,0,0,0,58.316468,10.874096 L56.237351,20.655572 A30,30,0,0,1,67.633558,25.72949" />
			<path d="M56.237351,20.655572 L58.316468,10.874096 A40,40,0,0,0,41.683532,10.874096 L43.762649,20.655572 A30,30,0,0,1,56.237351,20.655572" />
			<path d="M43.762649,20.655572 L41.683532,10.874096 A40,40,0,0,0,26.48859,17.63932 L32.366442,25.72949 A30,30,0,0,1,43.762649,20.655572" />
			<path d="M73.51141,17.63932 L79.389263,9.54915 A50,50,0,0,0,60.395585,1.09262 L58.316468,10.874096 A40,40,0,0,1,73.51141,17.63932" />
			<path d="M58.316468,10.874096 L60.395585,1.09262 A50,50,0,0,0,39.604415,1.09262 L41.683532,10.874096 A40,40,0,0,1,58.316468,10.874096" />
			<path d="M41.683532,10.874096 L39.604415,1.09262 A50,50,0,0,0,20.610737,9.54915 L26.48859,17.63932 A40,40,0,0,1,41.683532,10.874096" />
		</g>
		<g id="attack">
			<path d="M44.122147,41.90983 L38.244295,33.81966 A20,20,0,0,0,30.97887,56.18034 L40.489435,53.09017 A10,10,0,0,1,44.122147,41.90983" />
			<path d="M38.244295,33.81966 L32.366442,25.72949 A30,30,0,0,0,24.019238,35 L32.679492,40 A20,20,0,0,1,38.244295,33.81966" />
			<path d="M32.679492,40 L24.019238,35 A30,30,0,0,0,20.164343,46.864146 L30.109562,47.909431 A20,20,0,0,1,32.679492,40" />
			<path d="M30.109562,47.909431 L20.164343,46.864146 A30,30,0,0,0,21.468305,59.27051 L30.97887,56.18034 A20,20,0,0,1,30.109562,47.909431" />
			<path d="M32.366442,25.72949 L26.48859,17.63932 A40,40,0,0,0,19.17947,24.50304 L26.884603,30.87728 A30,30,0,0,1,32.366442,25.72949" />
			<path d="M26.884603,30.87728 L19.17947,24.50304 A40,40,0,0,0,13.806918,32.968828 L22.855188,37.226621 A30,30,0,0,1,26.884603,30.87728" />
			<path d="M22.855188,37.226621 L13.806918,32.968828 A40,40,0,0,0,10.70851,42.504747 L20.531382,44.378561 A30,30,0,0,1,22.855188,37.226621" />
			<path d="M20.531382,44.378561 L10.70851,42.504747 A40,40,0,0,0,10.078931,52.511621 L20.059198,51.883716 A30,30,0,0,1,20.531382,44.378561" />
			<path d="M20.059198,51.883716 L10.078931,52.511621 A40,40,0,0,0,11.957739,62.36068 L21.468305,59.27051 A30,30,0,0,1,20.059198,51.883716" />
			<path d="M26.48859,17.63932 L20.610737,9.54915 A50,50,0,0,0,11.474338,18.128801 L19.17947,24.50304 A40,40,0,0,1,26.48859,17.63932" />
			<path d="M19.17947,24.50304 L11.474338,18.128801 A50,50,0,0,0,4.758647,28.711035 L13.806918,32.968828 A40,40,0,0,1,19.17947,24.50304" />
			<path d="M13.806918,32.968828 L4.758647,28.711035 A50,50,0,0,0,0.885637,40.630934 L10.70851,42.504747 A40,40,0,0,1,13.806918,32.968828" />
			<path d="M10.70851,42.504747 L0.885637,40.630934 A50,50,0,0,0,0.098664,53.139526 L10.078931,52.511621 A40,40,0,0,1,10.70851,42.504747" />
			<path d="M10.078931,52.511621 L0.098664,53.139526 A50,50,0,0,0,2.447174,65.45085 L11.957739,62.36068 A40,40,0,0,1,10.078931,52.511621" />
		</g>
		<g id="move">
			<path d="M40.489435,53.09017 L30.97887,56.18034 A20,20,0,0,0,50,70 L50,60 A10,10,0,0,1,40.489435,53.09017" />
			<path d="M30.97887,56.18034 L21.468305,59.27051 A30,30,0,0,0,27.705655,70.073918 L35.137103,63.382612 A20,20,0,0,1,30.97887,56.18034" />
			<path d="M35.137103,63.382612 L27.705655,70.073918 A30,30,0,0,0,37.797901,77.406364 L41.865267,68.270909 A20,20,0,0,1,35.137103,63.382612" />
			<path d="M41.865267,68.270909 L37.797901,77.406364 A30,30,0,0,0,50,80 L50,70 A20,20,0,0,1,41.865267,68.270909" />
			<path d="M21.468305,59.27051 L11.957739,62.36068 A40,40,0,0,0,17.63932,73.51141 L25.72949,67.633558 A30,30,0,0,1,21.468305,59.27051" />
			<path d="M25.72949,67.633558 L17.63932,73.51141 A40,40,0,0,0,26.48859,82.36068 L32.366442,74.27051 A30,30,0,0,1,25.72949,67.633558" />
			<path d="M32.366442,74.27051 L26.48859,82.36068 A40,40,0,0,0,37.63932,88.042261 L40.72949,78.531695 A30,30,0,0,1,32.366442,74.27051" />
			<path d="M40.72949,78.531695 L37.63932,88.042261 A40,40,0,0,0,50,90 L50,80 A30,30,0,0,1,40.72949,78.531695" />
			<path d="M11.957739,62.36068 L2.447174,65.45085 A50,50,0,0,0,7.783604,76.79134 L16.226883,71.433072 A40,40,0,0,1,11.957739,62.36068" />
			<path d="M16.226883,71.433072 L7.783604,76.79134 A50,50,0,0,0,15.772645,86.448431 L22.618116,79.158745 A40,40,0,0,1,16.226883,71.433072" />
			<path d="M22.618116,79.158745 L15.772645,86.448431 A50,50,0,0,0,25.912316,93.815334 L30.729853,85.052267 A40,40,0,0,1,22.618116,79.158745" />
			<path d="M30.729853,85.052267 L25.912316,93.815334 A50,50,0,0,0,37.565506,98.429158 L40.052405,88.743326 A40,40,0,0,1,30.729853,85.052267" />
			<path d="M40.052405,88.743326 L37.565506,98.429158 A50,50,0,0,0,50,100 L50,90 A40,40,0,0,1,40.052405,88.743326" />
		</g>
		<g id="health">
			<path d="M50,60 L50,70 A20,20,0,0,0,69.02113,56.18034 L59.510565,53.09017 A10,10,0,0,1,50,60" />
			<path d="M50,70 L50,80 A30,30,0,0,0,62.202099,77.406364 L58.134733,68.270909 A20,20,0,0,1,50,70" />
			<path d="M58.134733,68.270909 L62.202099,77.406364 A30,30,0,0,0,72.294345,70.073918 L64.862897,63.382612 A20,20,0,0,1,58.134733,68.270909" />
			<path d="M64.862897,63.382612 L72.294345,70.073918 A30,30,0,0,0,78.531695,59.27051 L69.02113,56.18034 A20,20,0,0,1,64.862897,63.382612" />
			<path d="M50,80 L50,90 A40,40,0,0,0,59.947595,88.743326 L57.460697,79.057495 A30,30,0,0,1,50,80" />
			<path d="M57.460697,79.057495 L59.947595,88.743326 A40,40,0,0,0,69.270147,85.052267 L64.45261,76.2892 A30,30,0,0,1,57.460697,79.057495" />
			<path d="M64.45261,76.2892 L69.270147,85.052267 A40,40,0,0,0,77.381884,79.158745 L70.536413,71.869059 A30,30,0,0,1,64.45261,76.2892" />
			<path d="M70.536413,71.869059 L77.381884,79.158745 A40,40,0,0,0,83.773117,71.433072 L75.329838,66.074804 A30,30,0,0,1,70.536413,71.869059" />
			<path d="M75.329838,66.074804 L83.773117,71.433072 A40,40,0,0,0,88.042261,62.36068 L78.531695,59.27051 A30,30,0,0,1,75.329838,66.074804" />
			<path d="M50,90 L50,100 A50,50,0,0,0,62.434494,98.429158 L59.947595,88.743326 A40,40,0,0,1,50,90" />
			<path d="M59.947595,88.743326 L62.434494,98.429158 A50,50,0,0,0,74.087684,93.815334 L69.270147,85.052267 A40,40,0,0,1,59.947595,88.743326" />
			<path d="M69.270147,85.052267 L74.087684,93.815334 A50,50,0,0,0,84.227355,86.448431 L77.381884,79.158745 A40,40,0,0,1,69.270147,85.052267" />
			<path d="M77.381884,79.158745 L84.227355,86.448431 A50,50,0,0,0,92.216396,76.79134 L83.773117,71.433072 A40,40,0,0,1,77.381884,79.158745" />
			<path d="M83.773117,71.433072 L92.216396,76.79134 A50,50,0,0,0,97.552826,65.45085 L88.042261,62.36068 A40,40,0,0,1,83.773117,71.433072" />
		</g>
		<g id="energy">
			<path d="M59.510565,53.09017 L69.02113,56.18034 A20,20,0,0,0,61.755705,33.81966 L55.877853,41.90983 A10,10,0,0,1,59.510565,53.09017" />
			<path d="M69.02113,56.18034 L78.531695,59.27051 A30,30,0,0,0,79.835657,46.864146 L69.890438,47.909431 A20,20,0,0,1,69.02113,56.18034" />
			<path d="M69.890438,47.909431 L79.835657,46.864146 A30,30,0,0,0,75.980762,35 L67.320508,40 A20,20,0,0,1,69.890438,47.909431" />
			<path d="M67.320508,40 L75.980762,35 A30,30,0,0,0,67.633558,25.72949 L61.755705,33.81966 A20,20,0,0,1,67.320508,40" />
			<path d="M78.531695,59.27051 L88.042261,62.36068 A40,40,0,0,0,89.921069,52.511621 L79.940802,51.883716 A30,30,0,0,1,78.531695,59.27051" />
			<path d="M79.940802,51.883716 L89.921069,52.511621 A40,40,0,0,0,89.29149,42.504747 L79.468618,44.378561 A30,30,0,0,1,79.940802,51.883716" />
			<path d="M79.468618,44.378561 L89.29149,42.504747 A40,40,0,0,0,86.193082,32.968828 L77.144812,37.226621 A30,30,0,0,1,79.468618,44.378561" />
			<path d="M77.144812,37.226621 L86.193082,32.968828 A40,40,0,0,0,80.82053,24.50304 L73.115397,30.87728 A30,30,0,0,1,77.144812,37.226621" />
			<path d="M73.115397,30.87728 L80.82053,24.50304 A40,40,0,0,0,73.51141,17.63932 L67.633558,25.72949 A30,30,0,0,1,73.115397,30.87728" />
			<path d="M88.042261,62.36068 L97.552826,65.45085 A50,50,0,0,0,99.901336,53.139526 L89.921069,52.511621 A40,40,0,0,1,88.042261,62.36068" />
			<path d="M89.921069,52.511621 L99.901336,53.139526 A50,50,0,0,0,99.114363,40.630934 L89.29149,42.504747 A40,40,0,0,1,89.921069,52.511621" />
			<path d="M89.29149,42.504747 L99.114363,40.630934 A50,50,0,0,0,95.241353,28.711035 L86.193082,32.968828 A40,40,0,0,1,89.29149,42.504747" />
			<path d="M86.193082,32.968828 L95.241353,28.711035 A50,50,0,0,0,88.525662,18.128801 L80.82053,24.50304 A40,40,0,0,1,86.193082,32.968828" />
			<path d="M80.82053,24.50304 L88.525662,18.128801 A50,50,0,0,0,79.389263,9.54915 L73.51141,17.63932 A40,40,0,0,1,80.82053,24.50304" />
		</g>
		<g id="marquee">
			<path d="M50,50 L59.659258,47.41181 A10,10,0,0,0,57.071068,42.928932 L50,50 A0,0,0,0,1,50,50" />
			<path d="M50,50 L57.071068,42.928932 A10,10,0,0,0,52.58819,40.340742 L50,50 A0,0,0,0,1,50,50" />
			<path d="M50,50 L52.58819,40.340742 A10,10,0,0,0,47.41181,40.340742 L50,50 A0,0,0,0,1,50,50" />
			<path d="M50,50 L47.41181,40.340742 A10,10,0,0,0,42.928932,42.928932 L50,50 A0,0,0,0,1,50,50" />
			<path d="M50,50 L42.928932,42.928932 A10,10,0,0,0,40.340742,47.41181 L50,50 A0,0,0,0,1,50,50" />
			<path d="M50,50 L40.340742,47.41181 A10,10,0,0,0,40.340742,52.58819 L50,50 A0,0,0,0,1,50,50" />
			<path d="M50,50 L40.340742,52.58819 A10,10,0,0,0,42.928932,57.071068 L50,50 A0,0,0,0,1,50,50" />
			<path d="M50,50 L42.928932,57.071068 A10,10,0,0,0,47.41181,59.659258 L50,50 A0,0,0,0,1,50,50" />
			<path d="M50,50 L47.41181,59.659258 A10,10,0,0,0,52.58819,59.659258 L50,50 A0,0,0,0,1,50,50" />
			<path d="M50,50 L52.58819,59.659258 A10,10,0,0,0,57.071068,57.071068 L50,50 A0,0,0,0,1,50,50" />
			<path d="M50,50 L57.071068,57.071068 A10,10,0,0,0,59.659258,52.58819 L50,50 A0,0,0,0,1,50,50" />
			<path d="M50,50 L59.659258,52.58819 A10,10,0,0,0,59.659258,47.41181 L50,50 A0,0,0,0,1,50,50" />
		</g>
	</g>

	<g id="line">
		<line x1="50" y1="50" x2="50" y2="35" />
		<line x1="50" y1="35" x2="50" y2="25" />
		<line x1="60.168416" y1="27.161364" x2="50" y2="25" />
		<line x1="60.168416" y1="27.161364" x2="64.235783" y2="18.025909" />
		<line x1="60.168416" y1="27.161364" x2="50" y2="15" />
		<line x1="50" y1="25" x2="39.831584" y2="27.161364" />
		<line x1="39.831584" y1="27.161364" x2="50" y2="15" />
		<line x1="39.831584" y1="27.161364" x2="35.764217" y2="18.025909" />
		<line x1="50" y1="15" x2="68.303149" y2="8.890454" />
		<line x1="68.303149" y1="8.890454" x2="50" y2="5" />
		<line x1="50" y1="5" x2="31.696851" y2="8.890454" />

		<line x1="50" y1="50" x2="35.734152" y2="45.364745" />
		<line x1="35.734152" y1="45.364745" x2="26.223587" y2="42.274575" />
		<line x1="31.421379" y1="33.271735" x2="26.223587" y2="42.274575" />
		<line x1="31.421379" y1="33.271735" x2="20.448523" y2="31.246062" />
		<line x1="26.223587" y1="42.274575" x2="25.136953" y2="52.613212" />
		<line x1="25.136953" y1="52.613212" x2="15.069065" y2="47.802332" />
		<line x1="26.040851" y1="24.486098" x2="20.448523" y2="31.246062" />
		<line x1="26.040851" y1="24.486098" x2="19.19538" y2="17.196412" />
		<line x1="20.448523" y1="31.246062" x2="16.713022" y2="39.184405" />
		<line x1="16.713022" y1="39.184405" x2="15.069065" y2="47.802332" />
		<line x1="16.713022" y1="39.184405" x2="7.202457" y2="36.094235" />
		<line x1="15.069065" y1="47.802332" x2="15.619946" y2="56.558346" />
		<line x1="15.619946" y1="56.558346" x2="5.797074" y2="58.432159" />
		<line x1="12.005243" y1="25.887794" x2="7.202457" y2="36.094235" />
		<line x1="7.202457" y1="36.094235" x2="5.088797" y2="47.174427" />

		<line x1="50" y1="50" x2="41.183221" y2="62.135255" />
		<line x1="41.183221" y1="62.135255" x2="28.349365" y2="62.5" />
		<line x1="28.349365" y1="62.5" x2="35.305369" y2="70.225425" />
		<line x1="28.349365" y1="62.5" x2="18.814772" y2="65.889667" />
		<line x1="35.305369" y1="70.225425" x2="44.802208" y2="74.45369" />
		<line x1="18.814772" y1="65.889667" x2="25.251263" y2="74.748737" />
		<line x1="18.814772" y1="65.889667" x2="9.282783" y2="69.160068" />
		<line x1="25.251263" y1="74.748737" x2="34.110333" y2="81.185228" />
		<line x1="34.110333" y1="81.185228" x2="44.524794" y2="84.569092" />
		<line x1="9.282783" y1="69.160068" x2="15.326904" y2="78.68408" />
		<line x1="15.326904" y1="78.68408" x2="23.549664" y2="86.405765" />
		<line x1="23.549664" y1="86.405765" x2="33.434395" y2="91.839942" />
		<line x1="33.434395" y1="91.839942" x2="44.360004" y2="94.645162" />

		<line x1="50" y1="50" x2="58.816779" y2="62.135255" />
		<line x1="58.816779" y1="62.135255" x2="64.694631" y2="70.225425" />
		<line x1="55.197792" y1="74.45369" x2="64.694631" y2="70.225425" />
		<line x1="55.197792" y1="74.45369" x2="54.386663" y2="84.724015" />
		<line x1="64.694631" y1="70.225425" x2="71.650635" y2="62.5" />
		<line x1="64.694631" y1="70.225425" x2="70.572484" y2="78.315595" />
		<line x1="71.650635" y1="62.5" x2="81.668947" y2="64.902275" />
		<line x1="54.386663" y1="84.724015" x2="62.884359" y2="82.542177" />
		<line x1="62.884359" y1="82.542177" x2="66.565605" y2="91.839942" />
		<line x1="70.572484" y1="78.315595" x2="76.450336" y2="86.405765" />
		<line x1="76.967963" y1="72.30984" x2="81.668947" y2="64.902275" />
		<line x1="76.967963" y1="72.30984" x2="84.673096" y2="78.68408" />
		<line x1="55.639996" y1="94.645162" x2="66.565605" y2="91.839942" />
		<line x1="84.673096" y1="78.68408" x2="90.717217" y2="69.160068" />

		<line x1="50" y1="50" x2="64.265848" y2="45.364745" />
		<line x1="64.265848" y1="45.364745" x2="74.863047" y2="52.613212" />
		<line x1="64.265848" y1="45.364745" x2="68.578621" y2="33.271735" />
		<line x1="74.863047" y1="52.613212" x2="73.776413" y2="42.274575" />
		<line x1="74.863047" y1="52.613212" x2="84.380054" y2="56.558346" />
		<line x1="73.776413" y1="42.274575" x2="68.578621" y2="33.271735" />
		<line x1="73.776413" y1="42.274575" x2="83.286978" y2="39.184405" />
		<line x1="68.578621" y1="33.271735" x2="73.959149" y2="24.486098" />
		<line x1="84.380054" y1="56.558346" x2="94.202926" y2="58.432159" />
		<line x1="84.930935" y1="47.802332" x2="83.286978" y2="39.184405" />
		<line x1="84.930935" y1="47.802332" x2="94.911203" y2="47.174427" />
		<line x1="83.286978" y1="39.184405" x2="92.797543" y2="36.094235" />
		<line x1="79.551477" y1="31.246062" x2="73.959149" y2="24.486098" />
		<line x1="79.551477" y1="31.246062" x2="87.994757" y2="25.887794" />
		<line x1="87.994757" y1="25.887794" x2="80.80462" y2="17.196412" />
	</g>
	<g id="icon">
		<image href="icon/RandomDiamond.png" x="50" y="35" transform="translate(-3.5,-3.5)" />
		<image href="icon/RandomDiamond.png" x="60.168416" y="27.161364" transform="translate(-3.5,-3.5)" />
		<image href="icon/RandomDiamond.png" x="50" y="25" transform="translate(-3.5,-3.5)" />
		<image href="icon/Combo.png" x="39.831584" y="27.161364" transform="translate(-3.5,-3.5)" />
		<image href="icon/RandomDiamond.png" x="64.235783" y="18.025909" transform="translate(-3.5,-3.5)" />
		<image href="icon/RandomDiamond.png" x="50" y="15" transform="translate(-3.5,-3.5)" />
		<image href="icon/Juggle.png" x="35.764217" y="18.025909" transform="translate(-3.5,-3.5)" />
		<image href="icon/RandomDiamond.png" x="68.303149" y="8.890454" transform="translate(-3.5,-3.5)" />
		<image href="icon/RandomDiamond.png" x="50" y="5" transform="translate(-3.5,-3.5)" />
		<image href="icon/ChargeUp.png" x="31.696851" y="8.890454" transform="translate(-3.5,-3.5)" />

		<image href="icon/Damage.png" x="35.734152" y="45.364745" transform="translate(-3.5,-3.5)" />
		<image href="icon/Damage.png" x="31.421379" y="33.271735" transform="translate(-3.5,-3.5)" />
		<image href="icon/Damage.png" x="26.223587" y="42.274575" transform="translate(-3.5,-3.5)" />
		<image href="icon/Damage.png" x="25.136953" y="52.613212" transform="translate(-3.5,-3.5)" />
		<image href="icon/CritDamage.png" x="26.040851" y="24.486098" transform="translate(-3.5,-3.5)" />
		<image href="icon/Damage.png" x="20.448523" y="31.246062" transform="translate(-3.5,-3.5)" />
		<image href="icon/Damage.png" x="16.713022" y="39.184405" transform="translate(-3.5,-3.5)" />
		<image href="icon/Damage.png" x="15.069065" y="47.802332" transform="translate(-3.5,-3.5)" />
		<image href="icon/CritRateIncrease.png" x="15.619946" y="56.558346" transform="translate(-3.5,-3.5)" />
		<image href="icon/Damage.png" x="19.19538" y="17.196412" transform="translate(-3.5,-3.5)" />
		<image href="icon/CritDamage.png" x="12.005243" y="25.887794" transform="translate(-3.5,-3.5)" />
		<image href="icon/Damage.png" x="7.202457" y="36.094235" transform="translate(-3.5,-3.5)" />
		<image href="icon/CritRateIncrease.png" x="5.088797" y="47.174427" transform="translate(-3.5,-3.5)" />
		<image href="icon/Damage.png" x="5.797074" y="58.432159" transform="translate(-3.5,-3.5)" />

		<image href="icon/GearSlotUnlock.png" x="41.183221" y="62.135255" transform="translate(-3.5,-3.5)" />
		<image href="icon/GearSlotUnlock.png" x="28.349365" y="62.5" transform="translate(-3.5,-3.5)" />
		<image href="icon/GearIncrease.png" x="35.305369" y="70.225425" transform="translate(-3.5,-3.5)" />
		<image href="icon/GearIncrease.png" x="44.802208" y="74.45369" transform="translate(-3.5,-3.5)" />
		<image href="icon/GearSlotUnlock.png" x="18.814772" y="65.889667" transform="translate(-3.5,-3.5)" />
		<image href="icon/GearIncrease.png" x="25.251263" y="74.748737" transform="translate(-3.5,-3.5)" />
		<image href="icon/GearIncrease.png" x="34.110333" y="81.185228" transform="translate(-3.5,-3.5)" />
		<image href="icon/GearIncrease.png" x="44.524794" y="84.569092" transform="translate(-3.5,-3.5)" />
		<image href="icon/GearSlotUnlock.png" x="9.282783" y="69.160068" transform="translate(-3.5,-3.5)" />
		<image href="icon/GearIncrease.png" x="15.326904" y="78.68408" transform="translate(-3.5,-3.5)" />
		<image href="icon/GearIncrease.png" x="23.549664" y="86.405765" transform="translate(-3.5,-3.5)" />
		<image href="icon/GearIncrease.png" x="33.434395" y="91.839942" transform="translate(-3.5,-3.5)" />
		<image href="icon/GearIncrease.png" x="44.360004" y="94.645162" transform="translate(-3.5,-3.5)" />

		<image href="icon/Life.png" x="58.816779" y="62.135255" transform="translate(-3.5,-3.5)" />
		<image href="icon/Life.png" x="55.197792" y="74.45369" transform="translate(-3.5,-3.5)" />
		<image href="icon/Life.png" x="64.694631" y="70.225425" transform="translate(-3.5,-3.5)" />
		<image href="icon/Life.png" x="71.650635" y="62.5" transform="translate(-3.5,-3.5)" />
		<image href="icon/Life.png" x="54.386663" y="84.724015" transform="translate(-3.5,-3.5)" />
		<image href="icon/BlockArmorReduction.png" x="62.884359" y="82.542177" transform="translate(-3.5,-3.5)" />
		<image href="icon/Life.png" x="70.572484" y="78.315595" transform="translate(-3.5,-3.5)" />
		<image href="icon/ArmorUp.png" x="76.967963" y="72.30984" transform="translate(-3.5,-3.5)" />
		<image href="icon/Life.png" x="81.668947" y="64.902275" transform="translate(-3.5,-3.5)" />
		<image href="icon/ArmorUp.png" x="55.639996" y="94.645162" transform="translate(-3.5,-3.5)" />
		<image href="icon/Life.png" x="66.565605" y="91.839942" transform="translate(-3.5,-3.5)" />
		<image href="icon/Life.png" x="76.450336" y="86.405765" transform="translate(-3.5,-3.5)" />
		<image href="icon/Life.png" x="84.673096" y="78.68408" transform="translate(-3.5,-3.5)" />
		<image href="icon/BlockArmorReduction.png" x="90.717217" y="69.160068" transform="translate(-3.5,-3.5)" />

		<image href="icon/EnergyCooldown.png" x="64.265848" y="45.364745" transform="translate(-3.5,-3.5)" />
		<image href="icon/EnergyCooldown.png" x="74.863047" y="52.613212" transform="translate(-3.5,-3.5)" />
		<image href="icon/EnergyCooldown.png" x="73.776413" y="42.274575" transform="translate(-3.5,-3.5)" />
		<image href="icon/EnergyCooldown.png" x="68.578621" y="33.271735" transform="translate(-3.5,-3.5)" />
		<image href="icon/EnergyCooldown.png" x="84.380054" y="56.558346" transform="translate(-3.5,-3.5)" />
		<image href="icon/EnergyCooldown.png" x="84.930935" y="47.802332" transform="translate(-3.5,-3.5)" />
		<image href="icon/SwapCooldown.png" x="83.286978" y="39.184405" transform="translate(-3.5,-3.5)" />
		<image href="icon/EnergyCooldown.png" x="79.551477" y="31.246062" transform="translate(-3.5,-3.5)" />
		<image href="icon/SpecialMoveCooldown.png" x="73.959149" y="24.486098" transform="translate(-3.5,-3.5)" />
		<image href="icon/EnergyCooldown.png" x="94.202926" y="58.432159" transform="translate(-3.5,-3.5)" />
		<image href="icon/SpecialMoveCooldown.png" x="94.911203" y="47.174427" transform="translate(-3.5,-3.5)" />
		<image href="icon/EnergyCooldown.png" x="92.797543" y="36.094235" transform="translate(-3.5,-3.5)" />
		<image href="icon/SwapCooldown.png" x="87.994757" y="25.887794" transform="translate(-3.5,-3.5)" />
		<image href="icon/EnergyCooldown.png" x="80.80462" y="17.196412" transform="translate(-3.5,-3.5)" />
	</g>
	<g id="frame">
		<image href="icon/FrameDiamond.png" x="50" y="35" transform="translate(-4,-4)" />
		<image href="icon/FrameDiamond.png" x="60.168416" y="27.161364" transform="translate(-4,-4)" />
		<image href="icon/FrameDiamond.png" x="50" y="25" transform="translate(-4,-4)" />
		<image href="icon/FrameHex.png" x="39.831584" y="27.161364" transform="translate(-4,-4)" />
		<image href="icon/FrameDiamond.png" x="64.235783" y="18.025909" transform="translate(-4,-4)" />
		<image href="icon/FrameDiamond.png" x="50" y="15" transform="translate(-4,-4)" />
		<image href="icon/FrameHex.png" x="35.764217" y="18.025909" transform="translate(-4,-4)" />
		<image href="icon/FrameDiamond.png" x="68.303149" y="8.890454" transform="translate(-4,-4)" />
		<image href="icon/FrameDiamond.png" x="50" y="5" transform="translate(-4,-4)" />
		<image href="icon/FrameHex.png" x="31.696851" y="8.890454" transform="translate(-4,-4)" />

		<image href="icon/Frame.png" x="35.734152" y="45.364745" transform="translate(-4,-4)" />
		<image href="icon/Frame.png" x="31.421379" y="33.271735" transform="translate(-4,-4)" />
		<image href="icon/Frame.png" x="26.223587" y="42.274575" transform="translate(-4,-4)" />
		<image href="icon/Frame.png" x="25.136953" y="52.613212" transform="translate(-4,-4)" />
		<image href="icon/Frame.png" x="26.040851" y="24.486098" transform="translate(-4,-4)" />
		<image href="icon/Frame.png" x="20.448523" y="31.246062" transform="translate(-4,-4)" />
		<image href="icon/Frame.png" x="16.713022" y="39.184405" transform="translate(-4,-4)" />
		<image href="icon/Frame.png" x="15.069065" y="47.802332" transform="translate(-4,-4)" />
		<image href="icon/Frame.png" x="15.619946" y="56.558346" transform="translate(-4,-4)" />
		<image href="icon/Frame.png" x="19.19538" y="17.196412" transform="translate(-4,-4)" />
		<image href="icon/Frame.png" x="12.005243" y="25.887794" transform="translate(-4,-4)" />
		<image href="icon/Frame.png" x="7.202457" y="36.094235" transform="translate(-4,-4)" />
		<image href="icon/Frame.png" x="5.088797" y="47.174427" transform="translate(-4,-4)" />
		<image href="icon/Frame.png" x="5.797074" y="58.432159" transform="translate(-4,-4)" />

		<image href="icon/Frame.png" x="41.183221" y="62.135255" transform="translate(-4,-4)" />
		<image href="icon/Frame.png" x="28.349365" y="62.5" transform="translate(-4,-4)" />
		<image href="icon/Frame.png" x="35.305369" y="70.225425" transform="translate(-4,-4)" />
		<image href="icon/Frame.png" x="44.802208" y="74.45369" transform="translate(-4,-4)" />
		<image href="icon/Frame.png" x="18.814772" y="65.889667" transform="translate(-4,-4)" />
		<image href="icon/Frame.png" x="25.251263" y="74.748737" transform="translate(-4,-4)" />
		<image href="icon/Frame.png" x="34.110333" y="81.185228" transform="translate(-4,-4)" />
		<image href="icon/Frame.png" x="44.524794" y="84.569092" transform="translate(-4,-4)" />
		<image href="icon/Frame.png" x="9.282783" y="69.160068" transform="translate(-4,-4)" />
		<image href="icon/Frame.png" x="15.326904" y="78.68408" transform="translate(-4,-4)" />
		<image href="icon/Frame.png" x="23.549664" y="86.405765" transform="translate(-4,-4)" />
		<image href="icon/Frame.png" x="33.434395" y="91.839942" transform="translate(-4,-4)" />
		<image href="icon/Frame.png" x="44.360004" y="94.645162" transform="translate(-4,-4)" />

		<image href="icon/Frame.png" x="58.816779" y="62.135255" transform="translate(-4,-4)" />
		<image href="icon/Frame.png" x="55.197792" y="74.45369" transform="translate(-4,-4)" />
		<image href="icon/Frame.png" x="64.694631" y="70.225425" transform="translate(-4,-4)" />
		<image href="icon/Frame.png" x="71.650635" y="62.5" transform="translate(-4,-4)" />
		<image href="icon/Frame.png" x="54.386663" y="84.724015" transform="translate(-4,-4)" />
		<image href="icon/Frame.png" x="62.884359" y="82.542177" transform="translate(-4,-4)" />
		<image href="icon/Frame.png" x="70.572484" y="78.315595" transform="translate(-4,-4)" />
		<image href="icon/Frame.png" x="76.967963" y="72.30984" transform="translate(-4,-4)" />
		<image href="icon/Frame.png" x="81.668947" y="64.902275" transform="translate(-4,-4)" />
		<image href="icon/Frame.png" x="55.639996" y="94.645162" transform="translate(-4,-4)" />
		<image href="icon/Frame.png" x="66.565605" y="91.839942" transform="translate(-4,-4)" />
		<image href="icon/Frame.png" x="76.450336" y="86.405765" transform="translate(-4,-4)" />
		<image href="icon/Frame.png" x="84.673096" y="78.68408" transform="translate(-4,-4)" />
		<image href="icon/Frame.png" x="90.717217" y="69.160068" transform="translate(-4,-4)" />

		<image href="icon/Frame.png" x="64.265848" y="45.364745" transform="translate(-4,-4)" />
		<image href="icon/Frame.png" x="74.863047" y="52.613212" transform="translate(-4,-4)" />
		<image href="icon/Frame.png" x="73.776413" y="42.274575" transform="translate(-4,-4)" />
		<image href="icon/Frame.png" x="68.578621" y="33.271735" transform="translate(-4,-4)" />
		<image href="icon/Frame.png" x="84.380054" y="56.558346" transform="translate(-4,-4)" />
		<image href="icon/Frame.png" x="84.930935" y="47.802332" transform="translate(-4,-4)" />
		<image href="icon/Frame.png" x="83.286978" y="39.184405" transform="translate(-4,-4)" />
		<image href="icon/Frame.png" x="79.551477" y="31.246062" transform="translate(-4,-4)" />
		<image href="icon/Frame.png" x="73.959149" y="24.486098" transform="translate(-4,-4)" />
		<image href="icon/Frame.png" x="94.202926" y="58.432159" transform="translate(-4,-4)" />
		<image href="icon/Frame.png" x="94.911203" y="47.174427" transform="translate(-4,-4)" />
		<image href="icon/Frame.png" x="92.797543" y="36.094235" transform="translate(-4,-4)" />
		<image href="icon/Frame.png" x="87.994757" y="25.887794" transform="translate(-4,-4)" />
		<image href="icon/Frame.png" x="80.80462" y="17.196412" transform="translate(-4,-4)" />
	</g>


	<script>
		var data = {
			"sp": 10,
			"coins": 10,
			"theonite": 10,
			"fsboost": 10
		};
		function postMessage() {
			var json = JSON.stringify(data);
			window.parent.postMessage(json, window.parent.origin);
		}
		function updateTree(e) {
			if (e.target.tagName.toLowerCase() == "polygon") {
				postMessage();
			}
		}
		window.addEventListener("click", updateTree);
	</script>
</svg>
